#N canvas 827 239 527 327 12;
#X floatatom 223 292 8 0 0 0 - - - 24;
#X floatatom 276 368 10 0 0 0 - - - 24;
#X floatatom 329 429 12 0 0 0 - - - 24;
#X msg 223 32 listen 9999;
#X obj 223 69 netreceive -u -b 9999, f 34;
#X obj 223 109 oscparse;
#X obj 223 152 list trim;
#X obj 223 198 route data, f 19;
#X floatatom 382 496 13 0 0 0 - - - 24;
#X obj 380 198 print receiveddata;
#X obj 223 239 unpack 0 0 0 0 0 0, f 41;
#X text 137 302 timestamp;
#X text 179 379 some integer;
#X text 233 440 some float;
#X text 293 507 some data;
#X floatatom 435 578 13 0 0 0 - - - 24;
#X text 343 589 sensor data;
#X connect 3 0 4 0;
#X connect 4 0 5 0;
#X connect 5 0 6 0;
#X connect 6 0 7 0;
#X connect 7 0 9 0;
#X connect 7 0 10 0;
#X connect 10 0 0 0;
#X connect 10 1 1 0;
#X connect 10 2 2 0;
#X connect 10 3 8 0;
#X connect 10 4 15 0;
